<svg xmlns="http://www.w3.org/2000/svg" viewBox="0 0 500 500">
  <path d="M 396.662 221.451 C 316.459 173.835 184.206 169.461 107.655 192.701 C 95.364 196.432 82.364 189.486 78.653 177.195 C 74.922 164.9 81.845 151.905 94.16 148.174 C 182.029 121.495 328.089 126.635 420.395 181.442 C 431.465 187.993 435.072 202.276 428.521 213.325 C 421.97 224.375 407.667 228.023 396.662 221.451 Z M 367.348 298.377 C 300.499 257.272 198.574 245.373 119.471 269.377 C 109.23 272.485 98.39 266.705 95.277 256.463 C 92.189 246.201 97.974 235.403 108.215 232.291 C 198.554 204.868 310.864 218.136 387.646 265.316 C 396.766 270.932 399.627 282.872 394.028 291.992 C 388.392 301.115 376.472 303.973 367.348 298.377 Z M 342.268 364.877 C 283.853 329.181 210.325 321.116 123.742 340.893 C 115.406 342.798 107.094 337.575 105.189 329.242 C 103.26 320.889 108.484 312.577 116.836 310.669 C 211.611 289.006 292.87 298.336 358.435 338.404 C 365.752 342.861 368.054 352.418 363.576 359.716 C 359.119 367.054 349.586 369.354 342.268 364.877 Z M 0.754 249.686 C 0.754 387.079 112.132 498.433 249.506 498.433 C 386.899 498.433 498.253 387.079 498.253 249.686 C 498.253 112.312 386.899 0.934 249.506 0.934 C 112.132 0.934 0.754 112.312 0.754 249.686 Z" style="" transform="matrix(1, 0, 0, 1, 1.4210854715202004e-14, 0)" fill="#ffffff"/>
</svg>